HIERARCHY
ROOT SpineBase
{
  OFFSET 0.000000 0.000000 0.000000
  CHANNELS 6 Xposition Yposition Zposition Zrotation Xrotation Yrotation
  JOINT SpineMid
  {
    OFFSET -0.000000 26.597876 0.000000
    CHANNELS 3 Zrotation Xrotation Yrotation
    JOINT SpineShoulder
    {
      OFFSET -0.050493 19.664773 -0.731131
      CHANNELS 3 Zrotation Xrotation Yrotation
      JOINT Neck
      {
        OFFSET -0.049061 6.497829 -0.537070
        CHANNELS 3 Zrotation Xrotation Yrotation
        JOINT Head
        {
          OFFSET -3.832105 11.499021 0.309151
          CHANNELS 3 Zrotation Xrotation Yrotation
          End Site
          {
            OFFSET 0 0 0
          }
        }
      }
      JOINT ShoulderLeft
      {
        OFFSET -15.776414 -3.046855 7.607864
        CHANNELS 3 Zrotation Xrotation Yrotation
        JOINT ElbowLeft
        {
          OFFSET -1.676808 -24.470337 2.983120
          CHANNELS 3 Zrotation Xrotation Yrotation
          JOINT WristLeft
          {
            OFFSET -2.736312 -20.571507 -1.600072
            CHANNELS 3 Zrotation Xrotation Yrotation
            JOINT HandLeft
            {
              OFFSET -0.399096 -7.665182 -2.608062
              CHANNELS 3 Zrotation Xrotation Yrotation
              JOINT HandTipLeft
              {
                OFFSET -0.546877 -5.791709 -1.950136
                CHANNELS 3 Zrotation Xrotation Yrotation
                End Site
                {
                  OFFSET 0 0 0
                }
              }
              JOINT ThumbLeft
              {
                OFFSET -2.499742 -2.062635 -1.700105
                CHANNELS 3 Zrotation Xrotation Yrotation
                End Site
                {
                  OFFSET 0 0 0
                }
              }
            }
          }
        }
      }
      JOINT ShoulderRight
      {
        OFFSET 13.530845 -1.982463 -8.920011
        CHANNELS 3 Zrotation Xrotation Yrotation
        JOINT ElbowRight
        {
          OFFSET 6.349151 -20.345512 -9.204723
          CHANNELS 3 Zrotation Xrotation Yrotation
          JOINT WristRight
          {
            OFFSET -17.971527 8.949075 -10.672965
            CHANNELS 3 Zrotation Xrotation Yrotation
            JOINT HandRight
            {
              OFFSET -6.336644 2.439101 -3.455241
              CHANNELS 3 Zrotation Xrotation Yrotation
              JOINT HandTipRight
              {
                OFFSET -4.622971 2.191118 -0.861221
                CHANNELS 3 Zrotation Xrotation Yrotation
                End Site
                {
                  OFFSET 0 0 0
                }
              }
              JOINT ThumbRight
              {
                OFFSET -2.404922 -2.727960 -3.754745
                CHANNELS 3 Zrotation Xrotation Yrotation
                End Site
                {
                  OFFSET 0 0 0
                }
              }
            }
          }
        }
      }
    }
  }
  JOINT HipLeft
  {
    OFFSET -5.080734 0.049331 -0.362112
    CHANNELS 3 Zrotation Xrotation Yrotation
    JOINT KneeLeft
    {
      OFFSET -5.080653 -35.729982 5.275862
      CHANNELS 3 Zrotation Xrotation Yrotation
      JOINT AnkleLeft
      {
        OFFSET -0.755820 -34.264969 7.492710
        CHANNELS 3 Zrotation Xrotation Yrotation
        JOINT FootLeft
        {
          OFFSET -4.499495 -3.558333 -11.559915
          CHANNELS 3 Zrotation Xrotation Yrotation
          End Site
          {
            OFFSET 0 0 0
          }
        }
      }
    }
  }
  JOINT HipRight
  {
    OFFSET 4.316647 1.262652 -6.595691
    CHANNELS 3 Zrotation Xrotation Yrotation
    JOINT KneeRight
    {
      OFFSET 9.072015 -34.599558 3.052299
      CHANNELS 3 Zrotation Xrotation Yrotation
      JOINT AnkleRight
      {
        OFFSET 4.378958 -34.030849 6.672960
        CHANNELS 3 Zrotation Xrotation Yrotation
        JOINT FootRight
        {
          OFFSET -4.135611 -4.987829 -8.463758
          CHANNELS 3 Zrotation Xrotation Yrotation
          End Site
          {
            OFFSET 0 0 0
          }
        }
      }
    }
  }
}
MOTION
Frames: 5
Frame Time: 0.033333
38.687209 78.256366 353.595860 1.636309 0.463885 31.157771 0.217590 -0.076748 -31.093442 0.067320 -0.140790 0.094436 -8.629097 2.069864 0.937624 0.000000 0.000000 0.000000 -1.930743 -0.364600 -0.168472 -4.394533 -0.759255 0.411949 -0.283558 -8.812953 1.315579 6.226799 -3.538507 -1.965789 0.000000 0.000000 0.000000 0.000000 0.000000 0.000000 38.572091 51.544611 -16.509364 -55.271793 -22.129833 2.511581 5.988412 -11.363852 1.339407 -4.445319 -3.671001 -18.896689 0.000000 0.000000 0.000000 0.000000 0.000000 0.000000 -2.332309 -2.146781 -30.691459 -0.289230 3.767320 -0.416490 -1.121628 -2.115780 3.385331 0.000000 0.000000 0.000000 -1.640261 0.449708 -31.157957 -0.000000 0.000000 0.000000 -5.157361 10.265018 0.577350 0.000000 0.000000 0.000000
38.676773 78.273278 353.586151 1.619278 0.459239 31.145873 0.209637 -0.072702 -31.082428 0.060388 -0.143522 0.092607 -8.413250 1.958343 0.885970 0.000000 0.000000 0.000000 -1.897851 -0.356703 -0.165458 -4.414942 -0.629600 0.401159 -1.426872 -8.667771 1.644172 6.886227 -4.652642 -2.173404 0.000000 0.000000 0.000000 0.000000 0.000000 0.000000 39.747466 50.962043 -17.357170 -56.049105 -21.887866 2.674245 6.627399 -11.933265 1.583998 -5.384166 -3.422251 -20.359961 0.000000 0.000000 0.000000 0.000000 0.000000 0.000000 -2.287609 -2.154799 -30.677238 -0.286174 3.713988 -0.412208 -1.138866 -2.057651 3.320268 0.000000 0.000000 0.000000 -1.623376 0.444534 -31.146065 -0.000000 0.000000 0.000000 -5.111074 10.256223 0.513747 0.000000 0.000000 0.000000
38.668463 78.285152 353.577717 1.601321 0.446743 31.114392 0.195661 -0.067819 -31.051993 0.048208 -0.146994 0.089960 -8.180383 1.843042 0.831186 0.000000 0.000000 0.000000 -1.853176 -0.337807 -0.161180 -4.421971 -0.523656 0.391679 -2.502261 -7.971843 1.951890 7.922661 -5.674603 -2.518644 0.000000 0.000000 0.000000 0.000000 0.000000 0.000000 40.993256 50.500818 -18.244912 -56.411164 -22.112142 3.132339 5.607033 -10.722860 2.038808 -3.848935 -4.640595 -20.209173 0.000000 0.000000 0.000000 0.000000 0.000000 0.000000 -2.213098 -2.121459 -30.648410 -0.274687 3.529066 -0.397601 -1.167652 -1.910671 3.249728 0.000000 0.000000 0.000000 -1.601790 0.445057 -31.114414 -0.000000 0.000000 0.000000 -5.065376 10.252103 0.447851 0.000000 0.000000 0.000000
38.665708 78.292363 353.570019 1.588898 0.433646 31.047368 0.180100 -0.066094 -30.985769 0.029707 -0.154649 0.087040 -7.937906 1.711732 0.767937 0.000000 0.000000 0.000000 -1.807990 -0.310499 -0.156677 -4.358872 -0.411394 0.376464 -3.399808 -8.100057 2.196035 9.169699 -5.437961 -3.064958 0.000000 0.000000 0.000000 0.000000 0.000000 0.000000 42.162814 50.225993 -19.076364 -56.170775 -22.899138 3.858194 1.627484 -6.806153 0.964261 0.218324 -7.977415 -18.488574 0.000000 0.000000 0.000000 0.000000 0.000000 0.000000 -2.120830 -2.081530 -30.583425 -0.299153 3.283321 -0.384822 -1.175351 -1.716626 3.179274 0.000000 0.000000 0.000000 -1.584914 0.447992 -31.047184 -0.000000 0.000000 0.000000 -5.021661 10.255526 0.379839 0.000000 0.000000 0.000000
38.660212 78.313799 353.560782 1.569253 0.420334 30.993720 0.158939 -0.066886 -30.933249 0.010191 -0.165267 0.083524 -7.650335 1.608315 0.713573 0.000000 0.000000 0.000000 -1.751018 -0.275099 -0.151008 -4.218940 -0.392304 0.364345 -4.353002 -7.715155 2.442422 9.815631 -6.330737 -3.257459 0.000000 0.000000 0.000000 0.000000 0.000000 0.000000 43.323012 50.145194 -19.896263 -56.520343 -23.255502 4.038642 0.517849 -5.821645 0.107677 1.053139 -9.010765 -18.708722 0.000000 0.000000 0.000000 0.000000 0.000000 0.000000 -2.014078 -2.055458 -30.529225 -0.357666 3.102217 -0.379678 -1.154081 -1.571262 3.075314 0.000000 0.000000 0.000000 -1.561639 0.447799 -30.993373 -0.000000 0.000000 0.000000 -4.968315 10.288083 0.277785 0.000000 0.000000 0.000000
